<?xml version="1.0" standalone="no"?>
<!DOCTYPE svg PUBLIC "-//W3C//DTD SVG 20010904//EN"
 "http://www.w3.org/TR/2001/REC-SVG-20010904/DTD/svg10.dtd">
<svg version="1.0" xmlns="http://www.w3.org/2000/svg"
 width="533.000000pt" height="533.000000pt" viewBox="0 0 533.000000 533.000000"
 preserveAspectRatio="xMidYMid meet">
<metadata>
Created by potrace 1.14, written by Peter Selinger 2001-2017
</metadata>
<g transform="translate(0.000000,533.000000) scale(0.100000,-0.100000)"
fill="#000000" stroke="none">
<path d="M2398 5325 c-2 -2 -52 -6 -113 -9 -60 -4 -135 -11 -165 -16 -30 -5
-77 -12 -105 -16 -55 -7 -57 -7 -170 -30 -388 -77 -732 -225 -1000 -431 -21
-16 -141 -122 -175 -155 -55 -52 -152 -166 -207 -243 -222 -311 -371 -724
-428 -1190 -4 -27 -8 -60 -10 -73 -26 -160 -26 -811 0 -992 2 -14 6 -47 9 -75
5 -44 35 -220 51 -300 34 -173 115 -411 197 -583 119 -250 328 -521 513 -663
17 -13 39 -32 50 -42 44 -40 224 -152 324 -202 332 -166 676 -255 1126 -292
50 -4 218 -7 375 -7 309 0 441 7 615 34 33 5 78 12 100 16 260 39 673 177 833
278 23 14 44 26 46 26 3 0 38 21 78 47 443 285 738 721 883 1303 15 57 45 211
50 254 4 28 8 53 10 56 2 3 6 34 10 70 4 36 8 72 10 80 19 97 27 661 12 857
-11 152 -34 313 -72 508 -48 246 -161 538 -288 750 -257 427 -620 710 -1127
878 -101 34 -277 80 -350 92 -19 3 -42 8 -50 10 -21 6 -216 35 -270 41 -25 2
-70 6 -100 10 -59 6 -656 14 -662 9z"/>
</g>
</svg>
